<?xml version="1.0" encoding="UTF-8" standalone="no"?>
<svg
   xmlns:dc="http://purl.org/dc/elements/1.1/"
   xmlns:cc="http://creativecommons.org/ns#"
   xmlns:rdf="http://www.w3.org/1999/02/22-rdf-syntax-ns#"
   xmlns:svg="http://www.w3.org/2000/svg"
   xmlns="http://www.w3.org/2000/svg"
   viewBox="0 0 1466.6667 986.66669"
   height="986.66669"
   width="1466.6667"
   xml:space="preserve"
   id="svg2"
   version="1.1"><metadata
     id="metadata8"><rdf:RDF><cc:Work
         rdf:about=""><dc:format>image/svg+xml</dc:format><dc:type
           rdf:resource="http://purl.org/dc/dcmitype/StillImage" /></cc:Work></rdf:RDF></metadata><defs
     id="defs6"><clipPath
       id="clipPath22"
       clipPathUnits="userSpaceOnUse"><path
         id="path20"
         d="M 0,740 H 1100 V 0 H 0 Z" /></clipPath><clipPath
       id="clipPath54"
       clipPathUnits="userSpaceOnUse"><path
         id="path52"
         d="M 0,740 H 1100 V 0 H 0 Z" /></clipPath><clipPath
       id="clipPath86"
       clipPathUnits="userSpaceOnUse"><path
         id="path84"
         d="M 0,740 H 1100 V 0 H 0 Z" /></clipPath><clipPath
       id="clipPath118"
       clipPathUnits="userSpaceOnUse"><path
         id="path116"
         d="M 0,740 H 1100 V 0 H 0 Z" /></clipPath></defs><g
     transform="matrix(1.3333333,0,0,-1.3333333,0,986.66667)"
     id="g10"><path
       id="path12"
       style="fill:#000000;fill-opacity:1;fill-rule:nonzero;stroke:none"
       d="M 0,0 H 1100 V 370 H 0 Z" /><path
       id="path14"
       style="fill:#ffffff;fill-opacity:1;fill-rule:nonzero;stroke:none"
       d="M 0,370 H 1100 V 740 H 0 Z" /><g
       id="g16"><g
         clip-path="url(#clipPath22)"
         id="g18"><g
           transform="translate(250.4473,528.125)"
           id="g24"><path
             id="path26"
             style="fill:#1881c4;fill-opacity:1;fill-rule:nonzero;stroke:none"
             d="m 0,0 -41.375,-21.25 c 0,0 -53.166,25.25 -77.833,68.583 l 18.125,9.209 3.583,-6.084 -10.5,-6.083 c 0,0 25.625,-38.708 66.292,-60.875 z" /></g><g
           transform="translate(210.8848,515.4375)"
           id="g28"><path
             id="path30"
             style="fill:#0d0e0a;fill-opacity:1;fill-rule:nonzero;stroke:none"
             d="M 0,0 40.375,14.5 1.625,6.375 c 0,0 -39.271,34.646 -53.771,69.646 l 41.75,3.583 6.417,-9.666 5.416,2.5 -6.499,14 -57.667,-4.084 c 0,0 17.208,-45.875 62.729,-82.354" /></g><g
           transform="translate(246.0718,556.4585)"
           id="g32"><path
             id="path34"
             style="fill:none;stroke:#1881c4;stroke-width:4;stroke-linecap:butt;stroke-linejoin:miter;stroke-miterlimit:10;stroke-dasharray:none;stroke-opacity:1"
             d="m 0,0 c 0,-13.163 -10.67,-23.833 -23.833,-23.833 -13.163,0 -23.833,10.67 -23.833,23.833 0,13.163 10.67,23.833 23.833,23.833 C -10.67,23.833 0,13.163 0,0 Z" /></g><g
           transform="translate(234.3115,568.6436)"
           id="g36"><path
             id="path38"
             style="fill:#fefefe;fill-opacity:1;fill-rule:nonzero;stroke:none"
             d="M 0,0 12.537,10.414 18.029,3.802 5.493,-6.613 Z" /></g><g
           transform="translate(208.8848,564.875)"
           id="g40"><path
             id="path42"
             style="fill:#050602;fill-opacity:1;fill-rule:nonzero;stroke:none"
             d="M 0,0 13.063,-14.375 44.75,13.313 12.875,-8.313 C 12.875,-8.313 2.813,0.25 0,0" /></g></g></g><text
       id="text46"
       style="font-variant:normal;font-weight:normal;font-stretch:normal;font-size:66.82099915px;font-family:BiographerW00-Regular;-inkscape-font-specification:BiographerW00-Regular;writing-mode:lr-tb;fill:#000000;fill-opacity:1;fill-rule:nonzero;stroke:none"
       transform="matrix(1,0,0,-1,260.3687,545.7705)"><tspan
         id="tspan44"
         y="0"
         x="0 34.01189 53.256336 64.081337 73.636742 89.740601 99.095543 122.28912 133.11412 165.45547 181.55934">Agile Times</tspan></text>
<g
       id="g48"><g
         clip-path="url(#clipPath54)"
         id="g50"><g
           transform="translate(745.1992,528.125)"
           id="g56"><path
             id="path58"
             style="fill:#1881c4;fill-opacity:1;fill-rule:nonzero;stroke:none"
             d="m 0,0 -41.375,-21.25 c 0,0 -53.166,25.25 -77.833,68.583 l 18.124,9.209 3.584,-6.084 -10.5,-6.083 c 0,0 25.625,-38.708 66.291,-60.875 z" /></g><g
           transform="translate(705.6367,515.4375)"
           id="g60"><path
             id="path62"
             style="fill:#0d0e0a;fill-opacity:1;fill-rule:nonzero;stroke:none"
             d="M 0,0 40.375,14.5 1.625,6.375 c 0,0 -39.271,34.646 -53.771,69.646 l 41.75,3.583 6.417,-9.666 5.416,2.5 -6.499,14 -57.667,-4.084 c 0,0 17.208,-45.875 62.729,-82.354" /></g><g
           transform="translate(740.8242,556.4585)"
           id="g64"><path
             id="path66"
             style="fill:none;stroke:#1881c4;stroke-width:4;stroke-linecap:butt;stroke-linejoin:miter;stroke-miterlimit:10;stroke-dasharray:none;stroke-opacity:1"
             d="m 0,0 c 0,-13.163 -10.671,-23.833 -23.834,-23.833 -13.162,0 -23.832,10.67 -23.832,23.833 0,13.163 10.67,23.833 23.832,23.833 C -10.671,23.833 0,13.163 0,0 Z" /></g><g
           transform="translate(729.0635,568.6436)"
           id="g68"><path
             id="path70"
             style="fill:#fefefe;fill-opacity:1;fill-rule:nonzero;stroke:none"
             d="M 0,0 12.536,10.414 18.029,3.802 5.493,-6.613 Z" /></g><g
           transform="translate(703.6367,564.875)"
           id="g72"><path
             id="path74"
             style="fill:#050602;fill-opacity:1;fill-rule:nonzero;stroke:none"
             d="M 0,0 13.063,-14.375 44.75,13.313 12.875,-8.313 C 12.875,-8.313 2.813,0.25 0,0" /></g></g></g><text
       id="text78"
       style="font-style:italic;font-variant:normal;font-weight:normal;font-stretch:normal;font-size:45.1631012px;font-family:'Century Gothic';-inkscape-font-specification:CenturyGothic-Italic;writing-mode:lr-tb;fill:#000000;fill-opacity:1;fill-rule:nonzero;stroke:none"
       transform="matrix(1,0,0,-1,755.8125,545.771)"><tspan
         id="tspan76"
         y="0"
         x="0 33.420692 63.81546 72.848083 81.880699 111.23672 123.74689 142.98637 152.019 194.38199 223.73799">Agile Times</tspan></text>
<g
       id="g80"><g
         clip-path="url(#clipPath86)"
         id="g82"><g
           transform="translate(250.4473,158.75)"
           id="g88"><path
             id="path90"
             style="fill:#ffffff;fill-opacity:1;fill-rule:nonzero;stroke:none"
             d="m 0,0 -41.375,-21.25 c 0,0 -53.166,25.25 -77.833,68.583 l 18.125,9.208 3.583,-6.084 -10.5,-6.082 c 0,0 25.625,-38.709 66.292,-60.875 z" /></g><g
           transform="translate(210.8848,146.0625)"
           id="g92"><path
             id="path94"
             style="fill:#ffffff;fill-opacity:1;fill-rule:nonzero;stroke:none"
             d="M 0,0 40.375,14.5 1.625,6.375 c 0,0 -39.271,34.646 -53.771,69.646 l 41.75,3.583 6.417,-9.666 5.416,2.5 -6.499,14 -57.667,-4.084 c 0,0 17.208,-45.875 62.729,-82.354" /></g><g
           transform="translate(246.0718,187.083)"
           id="g96"><path
             id="path98"
             style="fill:none;stroke:#ffffff;stroke-width:5;stroke-linecap:butt;stroke-linejoin:miter;stroke-miterlimit:10;stroke-dasharray:none;stroke-opacity:1"
             d="m 0,0 c 0,-13.163 -10.67,-23.833 -23.833,-23.833 -13.163,0 -23.833,10.67 -23.833,23.833 0,13.163 10.67,23.833 23.833,23.833 C -10.67,23.833 0,13.163 0,0 Z" /></g><g
           transform="translate(234.3115,199.2676)"
           id="g100"><path
             id="path102"
             style="fill:#000000;fill-opacity:1;fill-rule:nonzero;stroke:none"
             d="M 0,0 12.537,10.414 18.029,3.803 5.493,-6.612 Z" /></g><g
           transform="translate(208.8848,195.5)"
           id="g104"><path
             id="path106"
             style="fill:#ffffff;fill-opacity:1;fill-rule:nonzero;stroke:none"
             d="M 0,0 13.063,-14.375 44.75,13.313 12.875,-8.313 C 12.875,-8.313 2.813,0.25 0,0" /></g></g></g><text
       id="text110"
       style="font-variant:normal;font-weight:normal;font-stretch:normal;font-size:66.82099915px;font-family:BiographerW00-Regular;-inkscape-font-specification:BiographerW00-Regular;writing-mode:lr-tb;fill:#ffffff;fill-opacity:1;fill-rule:nonzero;stroke:none"
       transform="matrix(1,0,0,-1,260.3687,176.3945)"><tspan
         id="tspan108"
         y="0"
         x="0 34.01189 53.256336 64.081337 73.636742 89.740601 99.095543 122.28912 133.11412 165.45547 181.55934">Agile Times</tspan></text>
<g
       id="g112"><g
         clip-path="url(#clipPath118)"
         id="g114"><g
           transform="translate(745.1992,158.75)"
           id="g120"><path
             id="path122"
             style="fill:#ffffff;fill-opacity:1;fill-rule:nonzero;stroke:none"
             d="m 0,0 -41.375,-21.25 c 0,0 -53.166,25.25 -77.833,68.583 l 18.124,9.208 3.584,-6.084 -10.5,-6.082 c 0,0 25.625,-38.709 66.291,-60.875 z" /></g><g
           transform="translate(705.6367,146.0625)"
           id="g124"><path
             id="path126"
             style="fill:#ffffff;fill-opacity:1;fill-rule:nonzero;stroke:none"
             d="M 0,0 40.375,14.5 1.625,6.375 c 0,0 -39.271,34.646 -53.771,69.646 l 41.75,3.583 6.417,-9.666 5.416,2.5 -6.499,14 -57.667,-4.084 c 0,0 17.208,-45.875 62.729,-82.354" /></g><g
           transform="translate(740.8242,187.083)"
           id="g128"><path
             id="path130"
             style="fill:none;stroke:#ffffff;stroke-width:5;stroke-linecap:butt;stroke-linejoin:miter;stroke-miterlimit:10;stroke-dasharray:none;stroke-opacity:1"
             d="m 0,0 c 0,-13.163 -10.671,-23.833 -23.834,-23.833 -13.162,0 -23.832,10.67 -23.832,23.833 0,13.163 10.67,23.833 23.832,23.833 C -10.671,23.833 0,13.163 0,0 Z" /></g><g
           transform="translate(729.0635,199.2676)"
           id="g132"><path
             id="path134"
             style="fill:#000000;fill-opacity:1;fill-rule:nonzero;stroke:none"
             d="M 0,0 12.536,10.414 18.029,3.803 5.493,-6.612 Z" /></g><g
           transform="translate(703.6367,195.5)"
           id="g136"><path
             id="path138"
             style="fill:#ffffff;fill-opacity:1;fill-rule:nonzero;stroke:none"
             d="M 0,0 13.063,-14.375 44.75,13.313 12.875,-8.313 C 12.875,-8.313 2.813,0.25 0,0" /></g></g></g><text
       id="text142"
       style="font-style:italic;font-variant:normal;font-weight:normal;font-stretch:normal;font-size:45.1631012px;font-family:'Century Gothic';-inkscape-font-specification:CenturyGothic-Italic;writing-mode:lr-tb;fill:#ffffff;fill-opacity:1;fill-rule:nonzero;stroke:none"
       transform="matrix(1,0,0,-1,755.8125,176.395)"><tspan
         id="tspan140"
         y="0"
         x="0 33.420692 63.81546 72.848083 81.880699 111.23672 123.74689 142.98637 152.019 194.38199 223.73799">Agile Times</tspan></text>
</g></svg>